<?xml version="1.0" encoding="UTF-8"?>
<svg width="256px" height="256px" viewBox="0 0 256 256" version="1.1" xmlns="http://www.w3.org/2000/svg">
    <g fill="#5382A1">
        <path d="M82.6,200.8 C82.6,200.8 71.9,206.7 93.4,208.3 C119.5,210.2 133.1,209.9 160.3,205.7 C160.3,205.7 168.5,210.8 179.8,214.9 C113.5,244.5 27.9,211.1 82.6,200.8"/>
        <path d="M76.3,172.2 C76.3,172.2 64.3,180.6 85.8,182 C113.8,183.9 136.3,184 173.8,178.3 C173.8,178.3 179.5,184 188.5,186.8 C109.9,212.8 18.7,187.7 76.3,172.2"/>
        <path d="M143.2,123.5 C157.4,140.1 137.4,155 137.4,155 C137.4,155 181.4,132.9 165.5,108.8 C150.6,86 132.1,74.6 205.9,46 C205.9,46 88.5,70.1 143.2,123.5"/>
        <path d="M206.4,228.4 C206.4,228.4 215.4,235.8 197.9,241.7 C164.4,252.5 45.2,255.5 15.9,242.1 C5.7,237.5 25.5,230.8 32.2,229.4 C39.1,227.9 43.1,228.1 43.1,228.1 C31.6,220 -24.1,247.4 9.9,254.3 C101.2,272.6 175.8,244.1 206.4,228.4"/>
        <path d="M89.1,142.8 C89.1,142.8 32.4,157.7 71.1,162.1 C89.9,164.2 126.2,163.8 159.8,160.7 C187.1,158.2 214.6,152.8 214.6,152.8 C214.6,152.8 205.8,156.5 199.4,160.7 C138.4,176.9 20.1,171.4 52.7,157.7 C80.1,146.2 89.1,142.8 89.1,142.8"/>
        <path d="M173.5,96.7 C234.5,65.6 204.9,36.1 183.4,40.8 C178.7,41.9 176.6,42.9 176.6,42.9 C176.6,42.9 178.2,40.4 181.7,39.1 C217.5,27.1 244.8,78.6 172.7,98.4 C172.7,98.4 173.2,97.5 173.5,96.7"/>
    </g>
</svg> 