<?xml version="1.0" encoding="UTF-8"?>
<svg width="256px" height="256px" viewBox="0 0 256 256" version="1.1" xmlns="http://www.w3.org/2000/svg">
    <g fill="#00ACC1">
        <path d="M128,0 C57.3,0 0,57.3 0,128 C0,198.7 57.3,256 128,256 C198.7,256 256,198.7 256,128 C256,57.3 198.7,0 128,0 Z M128,38.4 C176.4,38.4 217.6,79.6 217.6,128 C217.6,176.4 176.4,217.6 128,217.6 C79.6,217.6 38.4,176.4 38.4,128 C38.4,79.6 79.6,38.4 128,38.4 Z"/>
        <circle cx="128" cy="128" r="25.6"/>
        <circle cx="76.8" cy="76.8" r="25.6"/>
        <circle cx="179.2" cy="76.8" r="25.6"/>
        <circle cx="179.2" cy="179.2" r="25.6"/>
        <circle cx="76.8" cy="179.2" r="25.6"/>
    </g>
</svg> 