<?xml version="1.0" encoding="UTF-8"?>
<svg width="256px" height="256px" viewBox="0 0 256 256" version="1.1" xmlns="http://www.w3.org/2000/svg">
    <g fill="#3776AB">
        <path d="M128,0 C58.6,0 62.1,28.4 62.1,28.4 L62.2,57.6 L129.2,57.6 L129.2,66 L38.8,66 C38.8,66 0,61.8 0,128 C0,194.2 38.8,190 38.8,190 L61.9,190 L61.9,160.4 C61.9,160.4 60.7,121.6 99.5,121.6 L166.2,121.6 C166.2,121.6 203.3,122.2 203.3,85.3 L203.3,33.8 C203.3,33.8 208.3,0 128,0 Z M94.8,19.6 C100.4,19.6 104.9,24.1 104.9,29.7 C104.9,35.3 100.4,39.8 94.8,39.8 C89.2,39.8 84.7,35.3 84.7,29.7 C84.7,24.1 89.2,19.6 94.8,19.6 Z"/>
        <path d="M128,256 C197.4,256 193.9,227.6 193.9,227.6 L193.8,198.4 L126.8,198.4 L126.8,190 L217.2,190 C217.2,190 256,194.2 256,128 C256,61.8 217.2,66 217.2,66 L194.1,66 L194.1,95.6 C194.1,95.6 195.3,134.4 156.5,134.4 L89.8,134.4 C89.8,134.4 52.7,133.8 52.7,170.7 L52.7,222.2 C52.7,222.2 47.7,256 128,256 Z M161.2,236.4 C155.6,236.4 151.1,231.9 151.1,226.3 C151.1,220.7 155.6,216.2 161.2,216.2 C166.8,216.2 171.3,220.7 171.3,226.3 C171.3,231.9 166.8,236.4 161.2,236.4 Z"/>
    </g>
</svg> 