<?xml version="1.0" encoding="UTF-8"?>
<svg width="256px" height="256px" viewBox="0 0 256 256" version="1.1" xmlns="http://www.w3.org/2000/svg">
    <g fill="#E44D26">
        <path d="M28,0 L46.8,230.4 L127.9,256 L209.1,230.4 L228,0 L28,0 Z M183.6,83.2 L180.8,115.2 L127.9,115.2 L127.9,147.2 L156.8,147.2 L153.6,188.8 L127.9,196.8 L102.2,188.8 L100.8,166.4 L68.8,166.4 L71.6,211.2 L127.9,230.4 L184.2,211.2 L191.4,83.2 L183.6,83.2 Z"/>
        <path d="M127.9,0 L127.9,32 L64.6,32 L67.4,64 L127.9,64 L127.9,96 L99,96 L102.2,128 L127.9,136 L153.6,128 L155,105.6 L187,105.6 L184.2,150.4 L127.9,169.6 L71.6,150.4 L68.8,105.6 L100.8,105.6 L99,83.2 L64.6,83.2 L59.8,32 L127.9,32 L127.9,0 Z"/>
    </g>
</svg> 